<svg xmlns="http://www.w3.org/2000/svg" viewBox="0 0 320 180" width="320" height="180" role="img" aria-hidden="true">
<rect width="320" height="180" fill="#f1f3f4"/>
<rect x="38.5" y="57" width="5" height="9" rx="1.5" fill="#9aa0a6"/>
<rect x="38.5" y="114" width="5" height="9" rx="1.5" fill="#9aa0a6"/>
<rect x="25" y="70.5" width="9" height="5" rx="1.5" fill="#9aa0a6"/>
<rect x="49.8" y="57" width="5" height="9" rx="1.5" fill="#9aa0a6"/>
<rect x="49.8" y="114" width="5" height="9" rx="1.5" fill="#9aa0a6"/>
<rect x="25" y="81.8" width="9" height="5" rx="1.5" fill="#9aa0a6"/>
<rect x="61.2" y="57" width="5" height="9" rx="1.5" fill="#9aa0a6"/>
<rect x="61.2" y="114" width="5" height="9" rx="1.5" fill="#9aa0a6"/>
<rect x="25" y="93.2" width="9" height="5" rx="1.5" fill="#9aa0a6"/>
<rect x="72.5" y="57" width="5" height="9" rx="1.5" fill="#9aa0a6"/>
<rect x="72.5" y="114" width="5" height="9" rx="1.5" fill="#9aa0a6"/>
<rect x="25" y="104.5" width="9" height="5" rx="1.5" fill="#9aa0a6"/>
<rect x="82" y="71.5" width="46" height="3" rx="1.5" fill="#8ab4f8"/>
<rect x="82" y="82.8" width="46" height="3" rx="1.5" fill="#8ab4f8"/>
<rect x="82" y="94.2" width="46" height="3" rx="1.5" fill="#8ab4f8"/>
<rect x="82" y="105.5" width="46" height="3" rx="1.5" fill="#8ab4f8"/>
<rect x="32" y="64" width="52" height="52" rx="7" fill="#5f6368"/>
<rect x="45" y="77" width="26" height="26" rx="4" fill="#3c4043"/>
<rect x="51" y="83" width="14" height="14" rx="2" fill="#4285f4"/>
<rect x="126" y="26" width="180" height="132" rx="5" fill="#e1e3e5"/>
<rect x="124" y="24" width="180" height="132" rx="5" fill="#ffffff"/>
<rect x="134" y="36" width="7.7" height="10" rx="1" fill="#8ab4f8"/>
<rect x="142.7" y="36" width="1.7" height="10" rx="1" fill="#4285f4"/>
<rect x="145.5" y="36" width="2.2" height="10" rx="1" fill="#8ab4f8"/>
<rect x="148.6" y="36" width="1.8" height="10" rx="1" fill="#8ab4f8"/>
<rect x="151.4" y="36" width="1.9" height="10" rx="1" fill="#1a73e8"/>
<rect x="154.3" y="36" width="6" height="10" rx="1" fill="#1a73e8"/>
<rect x="165.8" y="36" width="4.1" height="10" rx="1" fill="#1a73e8"/>
<rect x="170.9" y="36" width="1.8" height="10" rx="1" fill="#8ab4f8"/>
<rect x="173.7" y="36" width="1.7" height="10" rx="1" fill="#c2dbff"/>
<rect x="176.4" y="36" width="3.8" height="10" rx="1" fill="#8ab4f8"/>
<rect x="181.2" y="36" width="8.8" height="10" rx="1" fill="#8ab4f8"/>
<rect x="195.8" y="36" width="5" height="10" rx="1" fill="#1a73e8"/>
<rect x="208.3" y="36" width="2.8" height="10" rx="1" fill="#4285f4"/>
<rect x="212" y="36" width="8.7" height="10" rx="1" fill="#4285f4"/>
<rect x="221.7" y="36" width="2.2" height="10" rx="1" fill="#8ab4f8"/>
<rect x="224.8" y="36" width="2.3" height="10" rx="1" fill="#4285f4"/>
<rect x="228.2" y="36" width="8" height="10" rx="1" fill="#1a73e8"/>
<rect x="243.3" y="36" width="2.1" height="10" rx="1" fill="#4285f4"/>
<rect x="246.4" y="36" width="11.5" height="10" rx="1" fill="#1a73e8"/>
<rect x="258.9" y="36" width="3.4" height="10" rx="1" fill="#4285f4"/>
<rect x="270.8" y="36" width="4" height="10" rx="1" fill="#c2dbff"/>
<rect x="275.8" y="36" width="1.9" height="10" rx="1" fill="#4285f4"/>
<rect x="278.8" y="36" width="9.3" height="10" rx="1" fill="#8ab4f8"/>
<rect x="289" y="36" width="3.6" height="10" rx="1" fill="#8ab4f8"/>
<rect x="293.6" y="36" width="0.4" height="10" rx="1" fill="#8ab4f8"/>
<rect x="134" y="51.5" width="1.8" height="10" rx="1" fill="#4285f4"/>
<rect x="136.8" y="51.5" width="8.9" height="10" rx="1" fill="#1a73e8"/>
<rect x="146.8" y="51.5" width="1.6" height="10" rx="1" fill="#1a73e8"/>
<rect x="149.3" y="51.5" width="1.7" height="10" rx="1" fill="#1a73e8"/>
<rect x="158.6" y="51.5" width="2.5" height="10" rx="1" fill="#8ab4f8"/>
<rect x="162.1" y="51.5" width="7.9" height="10" rx="1" fill="#4285f4"/>
<rect x="171.1" y="51.5" width="2.8" height="10" rx="1" fill="#4285f4"/>
<rect x="182.6" y="51.5" width="8.6" height="10" rx="1" fill="#4285f4"/>
<rect x="192.2" y="51.5" width="5.4" height="10" rx="1" fill="#4285f4"/>
<rect x="198.6" y="51.5" width="12.8" height="10" rx="1" fill="#1a73e8"/>
<rect x="212.4" y="51.5" width="1.7" height="10" rx="1" fill="#4285f4"/>
<rect x="215.1" y="51.5" width="7.4" height="10" rx="1" fill="#4285f4"/>
<rect x="223.5" y="51.5" width="6" height="10" rx="1" fill="#c2dbff"/>
<rect x="237.8" y="51.5" width="2.7" height="10" rx="1" fill="#8ab4f8"/>
<rect x="241.4" y="51.5" width="1.9" height="10" rx="1" fill="#4285f4"/>
<rect x="244.4" y="51.5" width="3.4" height="10" rx="1" fill="#4285f4"/>
<rect x="248.8" y="51.5" width="7.5" height="10" rx="1" fill="#c2dbff"/>
<rect x="257.3" y="51.5" width="9.7" height="10" rx="1" fill="#8ab4f8"/>
<rect x="268" y="51.5" width="7.7" height="10" rx="1" fill="#1a73e8"/>
<rect x="276.7" y="51.5" width="4.6" height="10" rx="1" fill="#4285f4"/>
<rect x="282.3" y="51.5" width="2.9" height="10" rx="1" fill="#1a73e8"/>
<rect x="286.2" y="51.5" width="2.9" height="10" rx="1" fill="#1a73e8"/>
<rect x="134" y="67" width="2.4" height="10" rx="1" fill="#1a73e8"/>
<rect x="137.4" y="67" width="2.2" height="10" rx="1" fill="#8ab4f8"/>
<rect x="140.7" y="67" width="2" height="10" rx="1" fill="#4285f4"/>
<rect x="143.7" y="67" width="6.1" height="10" rx="1" fill="#c2dbff"/>
<rect x="150.7" y="67" width="10.4" height="10" rx="1" fill="#c2dbff"/>
<rect x="162.1" y="67" width="4.6" height="10" rx="1" fill="#8ab4f8"/>
<rect x="167.7" y="67" width="3.2" height="10" rx="1" fill="#c2dbff"/>
<rect x="171.9" y="67" width="5.4" height="10" rx="1" fill="#8ab4f8"/>
<rect x="178.3" y="67" width="1.9" height="10" rx="1" fill="#4285f4"/>
<rect x="181.1" y="67" width="7.8" height="10" rx="1" fill="#4285f4"/>
<rect x="190" y="67" width="9.2" height="10" rx="1" fill="#c2dbff"/>
<rect x="200.2" y="67" width="5.1" height="10" rx="1" fill="#4285f4"/>
<rect x="209.1" y="67" width="3.9" height="10" rx="1" fill="#8ab4f8"/>
<rect x="214" y="67" width="10.4" height="10" rx="1" fill="#8ab4f8"/>
<rect x="225.4" y="67" width="12.2" height="10" rx="1" fill="#8ab4f8"/>
<rect x="238.7" y="67" width="2.6" height="10" rx="1" fill="#1a73e8"/>
<rect x="242.3" y="67" width="6" height="10" rx="1" fill="#c2dbff"/>
<rect x="249.2" y="67" width="5.6" height="10" rx="1" fill="#4285f4"/>
<rect x="255.9" y="67" width="5.1" height="10" rx="1" fill="#c2dbff"/>
<rect x="266" y="67" width="5" height="10" rx="1" fill="#4285f4"/>
<rect x="272.1" y="67" width="2.5" height="10" rx="1" fill="#1a73e8"/>
<rect x="275.6" y="67" width="2.1" height="10" rx="1" fill="#8ab4f8"/>
<rect x="278.6" y="67" width="8.3" height="10" rx="1" fill="#8ab4f8"/>
<rect x="287.9" y="67" width="2.6" height="10" rx="1" fill="#4285f4"/>
<rect x="291.5" y="67" width="2.5" height="10" rx="1" fill="#4285f4"/>
<rect x="134" y="82.5" width="2" height="10" rx="1" fill="#4285f4"/>
<rect x="137" y="82.5" width="1.8" height="10" rx="1" fill="#8ab4f8"/>
<rect x="139.8" y="82.5" width="3.3" height="10" rx="1" fill="#1a73e8"/>
<rect x="144.1" y="82.5" width="15.3" height="10" rx="1" fill="#8ab4f8"/>
<rect x="167.9" y="82.5" width="2.1" height="10" rx="1" fill="#1a73e8"/>
<rect x="171" y="82.5" width="5.4" height="10" rx="1" fill="#8ab4f8"/>
<rect x="177.4" y="82.5" width="10" height="10" rx="1" fill="#8ab4f8"/>
<rect x="188.4" y="82.5" width="4.5" height="10" rx="1" fill="#8ab4f8"/>
<rect x="193.9" y="82.5" width="3.6" height="10" rx="1" fill="#4285f4"/>
<rect x="200.7" y="82.5" width="12.7" height="10" rx="1" fill="#4285f4"/>
<rect x="214.3" y="82.5" width="6.4" height="10" rx="1" fill="#4285f4"/>
<rect x="221.8" y="82.5" width="3.7" height="10" rx="1" fill="#c2dbff"/>
<rect x="226.4" y="82.5" width="2.8" height="10" rx="1" fill="#1a73e8"/>
<rect x="230.2" y="82.5" width="4.5" height="10" rx="1" fill="#4285f4"/>
<rect x="235.8" y="82.5" width="1.5" height="10" rx="1" fill="#1a73e8"/>
<rect x="238.3" y="82.5" width="15" height="10" rx="1" fill="#c2dbff"/>
<rect x="254.3" y="82.5" width="6.9" height="10" rx="1" fill="#4285f4"/>
<rect x="262.2" y="82.5" width="2.4" height="10" rx="1" fill="#1a73e8"/>
<rect x="265.6" y="82.5" width="3.5" height="10" rx="1" fill="#4285f4"/>
<rect x="270.2" y="82.5" width="6.2" height="10" rx="1" fill="#8ab4f8"/>
<rect x="277.3" y="82.5" width="3.5" height="10" rx="1" fill="#1a73e8"/>
<rect x="281.8" y="82.5" width="1.8" height="10" rx="1" fill="#4285f4"/>
<rect x="287.6" y="82.5" width="6.4" height="10" rx="1" fill="#8ab4f8"/>
<rect x="134" y="98" width="2.7" height="10" rx="1" fill="#8ab4f8"/>
<rect x="143.9" y="98" width="4.4" height="10" rx="1" fill="#1a73e8"/>
<rect x="149.3" y="98" width="4.9" height="10" rx="1" fill="#c2dbff"/>
<rect x="155.2" y="98" width="7.7" height="10" rx="1" fill="#4285f4"/>
<rect x="169.3" y="98" width="10" height="10" rx="1" fill="#1a73e8"/>
<rect x="180.4" y="98" width="7.5" height="10" rx="1" fill="#1a73e8"/>
<rect x="188.9" y="98" width="5.7" height="10" rx="1" fill="#1a73e8"/>
<rect x="198.4" y="98" width="3.4" height="10" rx="1" fill="#1a73e8"/>
<rect x="202.8" y="98" width="1.5" height="10" rx="1" fill="#c2dbff"/>
<rect x="205.3" y="98" width="10.4" height="10" rx="1" fill="#4285f4"/>
<rect x="216.7" y="98" width="8" height="10" rx="1" fill="#4285f4"/>
<rect x="231.3" y="98" width="14.9" height="10" rx="1" fill="#4285f4"/>
<rect x="247.2" y="98" width="5.6" height="10" rx="1" fill="#1a73e8"/>
<rect x="253.8" y="98" width="5.9" height="10" rx="1" fill="#c2dbff"/>
<rect x="260.8" y="98" width="10.1" height="10" rx="1" fill="#1a73e8"/>
<rect x="271.8" y="98" width="8.9" height="10" rx="1" fill="#8ab4f8"/>
<rect x="281.8" y="98" width="2.3" height="10" rx="1" fill="#4285f4"/>
<rect x="285.1" y="98" width="8.1" height="10" rx="1" fill="#4285f4"/>
<rect x="134" y="113.5" width="4.7" height="10" rx="1" fill="#4285f4"/>
<rect x="139.7" y="113.5" width="5.1" height="10" rx="1" fill="#4285f4"/>
<rect x="145.8" y="113.5" width="1.7" height="10" rx="1" fill="#4285f4"/>
<rect x="148.5" y="113.5" width="7.1" height="10" rx="1" fill="#1a73e8"/>
<rect x="156.6" y="113.5" width="9.5" height="10" rx="1" fill="#4285f4"/>
<rect x="167.1" y="113.5" width="6.8" height="10" rx="1" fill="#4285f4"/>
<rect x="174.9" y="113.5" width="6.5" height="10" rx="1" fill="#4285f4"/>
<rect x="182.4" y="113.5" width="4.2" height="10" rx="1" fill="#1a73e8"/>
<rect x="187.6" y="113.5" width="2.2" height="10" rx="1" fill="#8ab4f8"/>
<rect x="190.8" y="113.5" width="6.5" height="10" rx="1" fill="#4285f4"/>
<rect x="198.3" y="113.5" width="5.8" height="10" rx="1" fill="#4285f4"/>
<rect x="205" y="113.5" width="5.4" height="10" rx="1" fill="#8ab4f8"/>
<rect x="216.7" y="113.5" width="2" height="10" rx="1" fill="#8ab4f8"/>
<rect x="219.7" y="113.5" width="6.7" height="10" rx="1" fill="#c2dbff"/>
<rect x="227.4" y="113.5" width="14.9" height="10" rx="1" fill="#8ab4f8"/>
<rect x="243.3" y="113.5" width="2.6" height="10" rx="1" fill="#4285f4"/>
<rect x="246.9" y="113.5" width="11.5" height="10" rx="1" fill="#8ab4f8"/>
<rect x="259.5" y="113.5" width="4.4" height="10" rx="1" fill="#4285f4"/>
<rect x="264.9" y="113.5" width="11.8" height="10" rx="1" fill="#1a73e8"/>
<rect x="277.7" y="113.5" width="2.5" height="10" rx="1" fill="#1a73e8"/>
<rect x="281.2" y="113.5" width="5.9" height="10" rx="1" fill="#c2dbff"/>
<rect x="288.1" y="113.5" width="3.6" height="10" rx="1" fill="#4285f4"/>
<rect x="292.8" y="113.5" width="1.2" height="10" rx="1" fill="#4285f4"/>
<rect x="134" y="129" width="5.9" height="10" rx="1" fill="#1a73e8"/>
<rect x="140.9" y="129" width="1.7" height="10" rx="1" fill="#4285f4"/>
<rect x="143.6" y="129" width="3.9" height="10" rx="1" fill="#c2dbff"/>
<rect x="148.5" y="129" width="3.7" height="10" rx="1" fill="#1a73e8"/>
<rect x="153.3" y="129" width="1.5" height="10" rx="1" fill="#8ab4f8"/>
<rect x="155.8" y="129" width="3" height="10" rx="1" fill="#4285f4"/>
<rect x="159.8" y="129" width="3.7" height="10" rx="1" fill="#8ab4f8"/>
<rect x="164.5" y="129" width="8.8" height="10" rx="1" fill="#4285f4"/>
<rect x="174.3" y="129" width="8.7" height="10" rx="1" fill="#1a73e8"/>
<rect x="184" y="129" width="8.6" height="10" rx="1" fill="#4285f4"/>
<rect x="193.6" y="129" width="2.9" height="10" rx="1" fill="#4285f4"/>
<rect x="197.5" y="129" width="11.2" height="10" rx="1" fill="#1a73e8"/>
<rect x="209.7" y="129" width="4.2" height="10" rx="1" fill="#8ab4f8"/>
<rect x="214.9" y="129" width="3.3" height="10" rx="1" fill="#8ab4f8"/>
<rect x="219.2" y="129" width="4.3" height="10" rx="1" fill="#8ab4f8"/>
<rect x="224.5" y="129" width="5.2" height="10" rx="1" fill="#1a73e8"/>
<rect x="230.7" y="129" width="11.7" height="10" rx="1" fill="#4285f4"/>
<rect x="243.4" y="129" width="2.5" height="10" rx="1" fill="#c2dbff"/>
<rect x="246.9" y="129" width="2" height="10" rx="1" fill="#4285f4"/>
<rect x="249.9" y="129" width="2.7" height="10" rx="1" fill="#8ab4f8"/>
<rect x="253.6" y="129" width="5.2" height="10" rx="1" fill="#c2dbff"/>
<rect x="264.2" y="129" width="2" height="10" rx="1" fill="#1a73e8"/>
<rect x="267.2" y="129" width="2.6" height="10" rx="1" fill="#1a73e8"/>
<rect x="273.2" y="129" width="4.5" height="10" rx="1" fill="#c2dbff"/>
<rect x="284.6" y="129" width="2.5" height="10" rx="1" fill="#1a73e8"/>
<rect x="288.1" y="129" width="5.9" height="10" rx="1" fill="#1a73e8"/>
<rect x="134" y="144.5" width="7.3" height="10" rx="1" fill="#4285f4"/>
<rect x="142.3" y="144.5" width="6.6" height="10" rx="1" fill="#4285f4"/>
<rect x="150" y="144.5" width="2" height="10" rx="1" fill="#4285f4"/>
<rect x="153" y="144.5" width="6.6" height="10" rx="1" fill="#8ab4f8"/>
<rect x="160.6" y="144.5" width="8.6" height="10" rx="1" fill="#4285f4"/>
<rect x="170.2" y="144.5" width="8.2" height="10" rx="1" fill="#8ab4f8"/>
<rect x="179.4" y="144.5" width="3.5" height="10" rx="1" fill="#4285f4"/>
<rect x="183.8" y="144.5" width="1.5" height="10" rx="1" fill="#4285f4"/>
<rect x="194" y="144.5" width="3.6" height="10" rx="1" fill="#c2dbff"/>
<rect x="198.6" y="144.5" width="15.2" height="10" rx="1" fill="#4285f4"/>
<rect x="214.8" y="144.5" width="1.9" height="10" rx="1" fill="#4285f4"/>
<rect x="217.7" y="144.5" width="3.5" height="10" rx="1" fill="#8ab4f8"/>
<rect x="222.2" y="144.5" width="5.9" height="10" rx="1" fill="#c2dbff"/>
<rect x="229.1" y="144.5" width="7.1" height="10" rx="1" fill="#4285f4"/>
<rect x="237.2" y="144.5" width="1.8" height="10" rx="1" fill="#c2dbff"/>
<rect x="240" y="144.5" width="1.7" height="10" rx="1" fill="#8ab4f8"/>
<rect x="242.7" y="144.5" width="6.7" height="10" rx="1" fill="#c2dbff"/>
<rect x="250.4" y="144.5" width="4.8" height="10" rx="1" fill="#4285f4"/>
<rect x="256.1" y="144.5" width="4" height="10" rx="1" fill="#1a73e8"/>
<rect x="261.1" y="144.5" width="3" height="10" rx="1" fill="#1a73e8"/>
<rect x="265.1" y="144.5" width="2.4" height="10" rx="1" fill="#4285f4"/>
<rect x="268.5" y="144.5" width="5.2" height="10" rx="1" fill="#4285f4"/>
<rect x="274.6" y="144.5" width="1.6" height="10" rx="1" fill="#8ab4f8"/>
<rect x="283.4" y="144.5" width="10.6" height="10" rx="1" fill="#4285f4"/>
</svg>
