<svg xmlns="http://www.w3.org/2000/svg" viewBox="0 0 320 180" width="320" height="180" role="img" aria-hidden="true">
<rect width="320" height="180" fill="#f1f3f4"/>
<rect x="24" y="36" width="30" height="112" rx="5" fill="#e1e3e5"/>
<rect x="22" y="34" width="30" height="112" rx="5" fill="#5f6368"/>
<rect x="29" y="44" width="16" height="4" rx="2" fill="#9aa0a6"/>
<rect x="72" y="36" width="64" height="112" rx="5" fill="#e1e3e5"/>
<rect x="70" y="34" width="64" height="112" rx="5" fill="#ffffff"/>
<rect x="76" y="42" width="52" height="7" rx="2" fill="#dadce0"/>
<rect x="76" y="58" width="52" height="40" rx="3" fill="#fad2cf"/>
<rect x="76" y="106" width="44" height="5" rx="2" fill="#dadce0"/>
<rect x="76" y="117" width="36" height="5" rx="2" fill="#dadce0"/>
<rect x="76" y="128" width="48" height="5" rx="2" fill="#dadce0"/>
<rect x="97" y="36" width="64" height="112" rx="5" fill="#e1e3e5"/>
<rect x="92" y="34" width="8" height="112" rx="5" fill="#dadce0"/>
<rect x="95" y="34" width="64" height="112" rx="5" fill="#ffffff"/>
<rect x="101" y="42" width="52" height="7" rx="2" fill="#dadce0"/>
<rect x="101" y="58" width="52" height="40" rx="3" fill="#fad2cf"/>
<rect x="101" y="106" width="44" height="5" rx="2" fill="#dadce0"/>
<rect x="101" y="117" width="36" height="5" rx="2" fill="#dadce0"/>
<rect x="101" y="128" width="48" height="5" rx="2" fill="#dadce0"/>
<rect x="122" y="36" width="64" height="112" rx="5" fill="#e1e3e5"/>
<rect x="117" y="34" width="8" height="112" rx="5" fill="#dadce0"/>
<rect x="120" y="34" width="64" height="112" rx="5" fill="#ffffff"/>
<rect x="126" y="42" width="52" height="7" rx="2" fill="#dadce0"/>
<rect x="126" y="58" width="52" height="40" rx="3" fill="#fad2cf"/>
<rect x="126" y="106" width="44" height="5" rx="2" fill="#dadce0"/>
<rect x="126" y="117" width="36" height="5" rx="2" fill="#dadce0"/>
<rect x="126" y="128" width="48" height="5" rx="2" fill="#dadce0"/>
<rect x="147" y="36" width="64" height="112" rx="5" fill="#e1e3e5"/>
<rect x="142" y="34" width="8" height="112" rx="5" fill="#dadce0"/>
<rect x="145" y="34" width="64" height="112" rx="5" fill="#ffffff"/>
<rect x="151" y="42" width="52" height="7" rx="2" fill="#dadce0"/>
<rect x="151" y="58" width="52" height="40" rx="3" fill="#fad2cf"/>
<rect x="151" y="106" width="44" height="5" rx="2" fill="#dadce0"/>
<rect x="151" y="117" width="36" height="5" rx="2" fill="#dadce0"/>
<rect x="151" y="128" width="48" height="5" rx="2" fill="#dadce0"/>
<rect x="172" y="36" width="64" height="112" rx="5" fill="#e1e3e5"/>
<rect x="167" y="34" width="8" height="112" rx="5" fill="#dadce0"/>
<rect x="170" y="34" width="64" height="112" rx="5" fill="#ffffff"/>
<rect x="176" y="42" width="52" height="7" rx="2" fill="#dadce0"/>
<rect x="176" y="58" width="52" height="40" rx="3" fill="#fad2cf"/>
<rect x="176" y="106" width="44" height="5" rx="2" fill="#dadce0"/>
<rect x="176" y="117" width="36" height="5" rx="2" fill="#dadce0"/>
<rect x="176" y="128" width="48" height="5" rx="2" fill="#dadce0"/>
<rect x="197" y="36" width="64" height="112" rx="5" fill="#e1e3e5"/>
<rect x="192" y="34" width="8" height="112" rx="5" fill="#dadce0"/>
<rect x="195" y="34" width="64" height="112" rx="5" fill="#ffffff"/>
<rect x="201" y="42" width="52" height="7" rx="2" fill="#dadce0"/>
<rect x="201" y="58" width="52" height="40" rx="3" fill="#fad2cf"/>
<rect x="201" y="106" width="44" height="5" rx="2" fill="#dadce0"/>
<rect x="201" y="117" width="36" height="5" rx="2" fill="#dadce0"/>
<rect x="201" y="128" width="48" height="5" rx="2" fill="#dadce0"/>
<rect x="222" y="36" width="64" height="112" rx="5" fill="#e1e3e5"/>
<rect x="217" y="34" width="8" height="112" rx="5" fill="#dadce0"/>
<rect x="220" y="34" width="64" height="112" rx="5" fill="#ffffff"/>
<rect x="226" y="42" width="52" height="7" rx="2" fill="#dadce0"/>
<rect x="226" y="58" width="52" height="40" rx="3" fill="#fad2cf"/>
<rect x="226" y="106" width="44" height="5" rx="2" fill="#dadce0"/>
<rect x="226" y="117" width="36" height="5" rx="2" fill="#dadce0"/>
<rect x="226" y="128" width="48" height="5" rx="2" fill="#dadce0"/>
<rect x="247" y="36" width="64" height="112" rx="5" fill="#e1e3e5"/>
<rect x="242" y="34" width="8" height="112" rx="5" fill="#dadce0"/>
<rect x="245" y="34" width="64" height="112" rx="5" fill="#ffffff"/>
<rect x="251" y="42" width="52" height="7" rx="2" fill="#dadce0"/>
<rect x="251" y="58" width="52" height="40" rx="3" fill="#f28b82"/>
<rect x="251" y="106" width="44" height="5" rx="2" fill="#dadce0"/>
<rect x="251" y="117" width="36" height="5" rx="2" fill="#dadce0"/>
<rect x="251" y="128" width="48" height="5" rx="2" fill="#dadce0"/>
<path d="M46,52 H257" stroke="#ea4335" stroke-width="3" stroke-linecap="round"/>
<circle cx="46" cy="52" r="5" fill="#c5221f"/>
<circle cx="82" cy="52" r="4.5" fill="#c5221f"/>
<circle cx="82" cy="52" r="2" fill="#ffffff"/>
<circle cx="107" cy="52" r="4.5" fill="#c5221f"/>
<circle cx="107" cy="52" r="2" fill="#ffffff"/>
<circle cx="132" cy="52" r="4.5" fill="#c5221f"/>
<circle cx="132" cy="52" r="2" fill="#ffffff"/>
<circle cx="157" cy="52" r="4.5" fill="#c5221f"/>
<circle cx="157" cy="52" r="2" fill="#ffffff"/>
<circle cx="182" cy="52" r="4.5" fill="#c5221f"/>
<circle cx="182" cy="52" r="2" fill="#ffffff"/>
<circle cx="207" cy="52" r="4.5" fill="#c5221f"/>
<circle cx="207" cy="52" r="2" fill="#ffffff"/>
<circle cx="232" cy="52" r="4.5" fill="#c5221f"/>
<circle cx="232" cy="52" r="2" fill="#ffffff"/>
<circle cx="257" cy="52" r="4.5" fill="#c5221f"/>
<circle cx="257" cy="52" r="2" fill="#ffffff"/>
</svg>
